<?xml version="1.0" standalone="no"?>
<!DOCTYPE svg PUBLIC "-//W3C//DTD SVG 20010904//EN"
 "http://www.w3.org/TR/2001/REC-SVG-20010904/DTD/svg10.dtd">
<svg version="1.0" xmlns="http://www.w3.org/2000/svg"
 width="400.000000pt" height="300.000000pt" viewBox="0 0 400.000000 300.000000"
 preserveAspectRatio="xMidYMid meet">

<g transform="translate(0.000000,300.000000) scale(0.100000,-0.100000)"
fill="#000000" stroke="none">
<path d="M1491 2013 c0 -5 48 -80 107 -168 l107 -160 217 -3 217 -2 -170 -231
c-94 -127 -168 -233 -166 -235 2 -2 132 -5 288 -5 280 -1 284 0 301 21 22 27
22 39 2 65 -14 18 -30 20 -195 25 l-181 5 30 40 c16 22 88 120 161 219 72 98
131 185 131 192 0 12 -50 14 -277 15 -153 1 -281 1 -285 0 -8 -1 -78 99 -78
111 0 12 798 10 821 -2 25 -14 24 -51 -1 -83 -11 -14 -79 -106 -151 -204
l-131 -178 59 -2 c96 -5 122 -12 164 -50 91 -83 68 -224 -47 -274 -40 -18 -68
-19 -443 -17 l-400 3 62 85 c34 47 112 153 173 235 60 83 114 156 118 163 5 9
-9 12 -61 12 l-69 0 -215 -291 c-117 -160 -218 -298 -222 -306 -7 -12 66 -13
530 -11 537 3 538 3 580 26 134 71 193 207 148 343 -20 59 -88 140 -135 159
-17 7 -30 15 -30 17 0 3 40 60 89 127 109 149 111 154 111 212 0 61 -31 111
-84 135 -38 17 -76 19 -558 19 -285 0 -518 -3 -517 -7z"/>
</g>
</svg>
